<svg width="687" height="317" viewBox="0 0 687 317" fill="none" xmlns="http://www.w3.org/2000/svg">
<path d="M659.84 184H625.16C619.052 184 614.1 188.952 614.1 195.06V290.94C614.1 297.048 619.052 302 625.16 302H659.84C665.948 302 670.9 297.048 670.9 290.94V195.06C670.9 188.952 665.948 184 659.84 184Z" fill="white"/>
<path d="M659.84 185C662.507 185.003 665.065 186.063 666.951 187.949C668.837 189.835 669.897 192.393 669.9 195.06V290.94C669.897 293.607 668.837 296.165 666.951 298.051C665.065 299.937 662.507 300.997 659.84 301H625.16C622.493 300.997 619.935 299.937 618.049 298.051C616.163 296.165 615.103 293.607 615.1 290.94V195.06C615.103 192.393 616.163 189.835 618.049 187.949C619.935 186.063 622.493 185.003 625.16 185H659.84V185ZM659.84 183H625.16C621.961 183 618.894 184.271 616.632 186.532C614.371 188.794 613.1 191.861 613.1 195.06V290.94C613.1 294.139 614.371 297.206 616.632 299.468C618.894 301.729 621.961 303 625.16 303H659.84C663.039 303 666.106 301.729 668.368 299.468C670.629 297.206 671.9 294.139 671.9 290.94V195.06C671.9 191.861 670.629 188.794 668.368 186.532C666.106 184.271 663.039 183 659.84 183V183Z" fill="#66CC33"/>
<path d="M634.7 188.5C633.878 188.5 633.089 188.173 632.508 187.592C631.927 187.011 631.6 186.222 631.6 185.4C631.6 185.214 631.674 185.036 631.805 184.905C631.936 184.774 632.114 184.7 632.3 184.7H651.5C651.592 184.7 651.683 184.718 651.768 184.753C651.853 184.788 651.93 184.84 651.995 184.905C652.06 184.97 652.112 185.047 652.147 185.132C652.182 185.217 652.2 185.308 652.2 185.4C652.2 186.222 651.873 187.011 651.292 187.592C650.711 188.173 649.922 188.5 649.1 188.5H634.7Z" fill="white"/>
<path d="M651.5 185.2C651.553 185.2 651.604 185.221 651.641 185.259C651.679 185.296 651.7 185.347 651.7 185.4C651.697 186.089 651.423 186.749 650.936 187.236C650.449 187.723 649.789 187.997 649.1 188H634.7C634.011 187.997 633.351 187.723 632.864 187.236C632.377 186.749 632.103 186.089 632.1 185.4C632.1 185.374 632.105 185.348 632.115 185.323C632.125 185.299 632.14 185.277 632.159 185.259C632.177 185.24 632.199 185.225 632.223 185.215C632.248 185.205 632.274 185.2 632.3 185.2H651.5V185.2ZM651.5 184.2H632.3C631.982 184.2 631.677 184.326 631.451 184.551C631.226 184.777 631.1 185.082 631.1 185.4C631.1 186.355 631.479 187.27 632.154 187.946C632.83 188.621 633.745 189 634.7 189H649.1C650.055 189 650.97 188.621 651.646 187.946C652.321 187.27 652.7 186.355 652.7 185.4C652.7 185.082 652.574 184.777 652.349 184.551C652.123 184.326 651.818 184.2 651.5 184.2V184.2Z" fill="#66CC33"/>
<path d="M642.5 229.5C645.261 229.5 647.5 227.261 647.5 224.5C647.5 221.739 645.261 219.5 642.5 219.5C639.739 219.5 637.5 221.739 637.5 224.5C637.5 227.261 639.739 229.5 642.5 229.5Z" fill="white" stroke="#66CC33" stroke-miterlimit="10"/>
<path d="M629.5 236.5H655.5" stroke="#66CC33" stroke-miterlimit="10"/>
<path d="M629.5 243.5H655.5" stroke="#66CC33" stroke-miterlimit="10"/>
<path d="M629.5 250.5H655.5" stroke="#66CC33" stroke-miterlimit="10"/>
<path d="M629.5 257.5H655.5" stroke="#66CC33" stroke-miterlimit="10"/>
<path d="M45 289V130.61C45.0026 128.062 46.016 125.619 47.8176 123.818C49.6193 122.016 52.0621 121.003 54.61 121H307.39C309.938 121.003 312.381 122.016 314.182 123.818C315.984 125.619 316.997 128.062 317 130.61V289H45Z" fill="white"/>
<path d="M307.39 122C309.673 122.003 311.861 122.911 313.475 124.525C315.089 126.139 315.997 128.327 316 130.61V288H46V130.61C46.0026 128.327 46.9106 126.139 48.5247 124.525C50.1388 122.911 52.3273 122.003 54.61 122H307.39ZM307.39 120H54.61C51.7961 120 49.0974 121.118 47.1076 123.108C45.1178 125.097 44 127.796 44 130.61V290H318V130.61C318 127.796 316.882 125.097 314.892 123.108C312.903 121.118 310.204 120 307.39 120V120Z" fill="#66CC33"/>
<path d="M300.95 134.5H60.19V274.5H300.95V134.5Z" fill="white"/>
<path d="M300.46 135V274H60.69V135H300.46ZM301.46 134H59.69V275H301.46V134Z" fill="#66CC33"/>
<path d="M181.5 130.5C182.605 130.5 183.5 129.605 183.5 128.5C183.5 127.395 182.605 126.5 181.5 126.5C180.395 126.5 179.5 127.395 179.5 128.5C179.5 129.605 180.395 130.5 181.5 130.5Z" fill="white"/>
<path d="M181.5 127C181.797 127 182.087 127.088 182.333 127.253C182.58 127.418 182.772 127.652 182.886 127.926C182.999 128.2 183.029 128.502 182.971 128.793C182.913 129.084 182.77 129.351 182.561 129.561C182.351 129.77 182.084 129.913 181.793 129.971C181.502 130.029 181.2 129.999 180.926 129.886C180.652 129.772 180.418 129.58 180.253 129.333C180.088 129.087 180 128.797 180 128.5C180 128.102 180.158 127.721 180.439 127.439C180.721 127.158 181.102 127 181.5 127ZM181.5 126C181.006 126 180.522 126.147 180.111 126.421C179.7 126.696 179.38 127.086 179.19 127.543C179.001 128 178.952 128.503 179.048 128.988C179.144 129.473 179.383 129.918 179.732 130.268C180.082 130.617 180.527 130.856 181.012 130.952C181.497 131.048 182 130.999 182.457 130.81C182.914 130.62 183.304 130.3 183.579 129.889C183.853 129.478 184 128.994 184 128.5C184 127.837 183.737 127.201 183.268 126.732C182.799 126.263 182.163 126 181.5 126V126Z" fill="#66CC33"/>
<path d="M25.25 302C22.5323 301.997 19.9268 300.917 18.0051 298.995C16.0834 297.073 15.0026 294.468 15 291.75C15 291.021 15.2897 290.321 15.8055 289.805C16.3212 289.29 17.0207 289 17.75 289H344.25C344.979 289 345.679 289.29 346.195 289.805C346.71 290.321 347 291.021 347 291.75C346.997 294.468 345.917 297.073 343.995 298.995C342.073 300.917 339.468 301.997 336.75 302H25.25Z" fill="white"/>
<path d="M344.25 290C344.713 290.003 345.157 290.188 345.485 290.515C345.812 290.843 345.997 291.287 346 291.75C345.997 294.202 345.022 296.554 343.288 298.288C341.554 300.022 339.202 300.997 336.75 301H25.25C22.7976 300.997 20.4463 300.022 18.7122 298.288C16.978 296.554 16.0026 294.202 16 291.75C16.0026 291.287 16.1878 290.843 16.5155 290.515C16.8431 290.188 17.2867 290.003 17.75 290H344.25ZM344.25 288H17.75C16.7554 288 15.8016 288.395 15.0983 289.098C14.3951 289.802 14 290.755 14 291.75C14 294.734 15.1853 297.595 17.295 299.705C19.4048 301.815 22.2663 303 25.25 303H336.75C339.734 303 342.595 301.815 344.705 299.705C346.815 297.595 348 294.734 348 291.75C348 290.755 347.605 289.802 346.902 289.098C346.198 288.395 345.245 288 344.25 288Z" fill="#66CC33"/>
<path d="M158 293.5C156.893 293.499 155.826 293.091 155.001 292.353C154.177 291.616 153.653 290.6 153.53 289.5H207.47C207.347 290.6 206.823 291.616 205.999 292.353C205.174 293.091 204.107 293.499 203 293.5H158Z" fill="white"/>
<path d="M206.87 290C206.648 290.858 206.148 291.618 205.448 292.161C204.747 292.704 203.886 292.999 203 293H158C157.114 292.999 156.253 292.704 155.552 292.161C154.852 291.618 154.352 290.858 154.13 290H206.87ZM208 289H153C153 290.326 153.527 291.598 154.464 292.536C155.402 293.473 156.674 294 158 294H203C204.326 294 205.598 293.473 206.536 292.536C207.473 291.598 208 290.326 208 289V289Z" fill="#66CC33"/>
<path d="M179.38 168.5H97.62C95.3446 168.5 93.5 170.345 93.5 172.62V226.38C93.5 228.655 95.3446 230.5 97.62 230.5H179.38C181.655 230.5 183.5 228.655 183.5 226.38V172.62C183.5 170.345 181.655 168.5 179.38 168.5Z" fill="white"/>
<path d="M179.38 169C179.855 169 180.326 169.094 180.765 169.276C181.205 169.457 181.604 169.724 181.94 170.06C182.276 170.396 182.543 170.795 182.724 171.235C182.906 171.674 183 172.145 183 172.62V226.38C183 227.34 182.619 228.261 181.94 228.94C181.261 229.619 180.34 230 179.38 230H97.62C96.6599 230 95.7392 229.619 95.0603 228.94C94.3814 228.261 94 227.34 94 226.38V172.62C94 172.145 94.0936 171.674 94.2756 171.235C94.4575 170.795 94.7241 170.396 95.0603 170.06C95.3964 169.724 95.7955 169.457 96.2347 169.276C96.6739 169.094 97.1446 169 97.62 169H179.38ZM179.38 168H97.62C97.0133 168 96.4125 168.119 95.852 168.352C95.2915 168.584 94.7822 168.924 94.3532 169.353C93.9242 169.782 93.5839 170.291 93.3517 170.852C93.1195 171.413 93 172.013 93 172.62V226.38C93 227.605 93.4867 228.78 94.3532 229.647C95.2196 230.513 96.3947 231 97.62 231H179.38C179.987 231 180.587 230.881 181.148 230.648C181.709 230.416 182.218 230.076 182.647 229.647C183.076 229.218 183.416 228.709 183.648 228.148C183.881 227.587 184 226.987 184 226.38V172.62C184 172.013 183.881 171.413 183.648 170.852C183.416 170.291 183.076 169.782 182.647 169.353C182.218 168.924 181.709 168.584 181.148 168.352C180.587 168.119 179.987 168 179.38 168V168Z" fill="#66CC33"/>
<path d="M93 176.5H184" stroke="#66CC33" stroke-miterlimit="10"/>
<path d="M101.5 173.75C102.19 173.75 102.75 173.19 102.75 172.5C102.75 171.81 102.19 171.25 101.5 171.25C100.81 171.25 100.25 171.81 100.25 172.5C100.25 173.19 100.81 173.75 101.5 173.75Z" fill="#66CC33"/>
<path d="M101.5 171.5C101.698 171.5 101.891 171.559 102.056 171.669C102.22 171.778 102.348 171.935 102.424 172.117C102.5 172.3 102.519 172.501 102.481 172.695C102.442 172.889 102.347 173.067 102.207 173.207C102.067 173.347 101.889 173.442 101.695 173.481C101.501 173.519 101.3 173.5 101.117 173.424C100.935 173.348 100.778 173.22 100.669 173.056C100.559 172.891 100.5 172.698 100.5 172.5C100.5 172.235 100.605 171.98 100.793 171.793C100.98 171.605 101.235 171.5 101.5 171.5ZM101.5 171C101.203 171 100.913 171.088 100.667 171.253C100.42 171.418 100.228 171.652 100.114 171.926C100.001 172.2 99.9709 172.502 100.029 172.793C100.087 173.084 100.23 173.351 100.439 173.561C100.649 173.77 100.916 173.913 101.207 173.971C101.498 174.029 101.8 173.999 102.074 173.886C102.348 173.772 102.582 173.58 102.747 173.333C102.912 173.087 103 172.797 103 172.5C103 172.102 102.842 171.721 102.561 171.439C102.279 171.158 101.898 171 101.5 171V171Z" fill="#66CC33"/>
<path d="M105.5 173.75C106.19 173.75 106.75 173.19 106.75 172.5C106.75 171.81 106.19 171.25 105.5 171.25C104.81 171.25 104.25 171.81 104.25 172.5C104.25 173.19 104.81 173.75 105.5 173.75Z" fill="#66CC33"/>
<path d="M105.5 171.5C105.698 171.5 105.891 171.559 106.056 171.669C106.22 171.778 106.348 171.935 106.424 172.117C106.5 172.3 106.519 172.501 106.481 172.695C106.442 172.889 106.347 173.067 106.207 173.207C106.067 173.347 105.889 173.442 105.695 173.481C105.501 173.519 105.3 173.5 105.117 173.424C104.935 173.348 104.778 173.22 104.669 173.056C104.559 172.891 104.5 172.698 104.5 172.5C104.5 172.235 104.605 171.98 104.793 171.793C104.98 171.605 105.235 171.5 105.5 171.5ZM105.5 171C105.203 171 104.913 171.088 104.667 171.253C104.42 171.418 104.228 171.652 104.114 171.926C104.001 172.2 103.971 172.502 104.029 172.793C104.087 173.084 104.23 173.351 104.439 173.561C104.649 173.77 104.916 173.913 105.207 173.971C105.498 174.029 105.8 173.999 106.074 173.886C106.348 173.772 106.582 173.58 106.747 173.333C106.912 173.087 107 172.797 107 172.5C107 172.102 106.842 171.721 106.561 171.439C106.279 171.158 105.898 171 105.5 171Z" fill="#66CC33"/>
<path d="M109.5 173.75C110.19 173.75 110.75 173.19 110.75 172.5C110.75 171.81 110.19 171.25 109.5 171.25C108.81 171.25 108.25 171.81 108.25 172.5C108.25 173.19 108.81 173.75 109.5 173.75Z" fill="#66CC33"/>
<path d="M109.5 171.5C109.698 171.5 109.891 171.559 110.056 171.669C110.22 171.778 110.348 171.935 110.424 172.117C110.5 172.3 110.519 172.501 110.481 172.695C110.442 172.889 110.347 173.067 110.207 173.207C110.067 173.347 109.889 173.442 109.695 173.481C109.501 173.519 109.3 173.5 109.117 173.424C108.935 173.348 108.778 173.22 108.669 173.056C108.559 172.891 108.5 172.698 108.5 172.5C108.5 172.235 108.605 171.98 108.793 171.793C108.98 171.605 109.235 171.5 109.5 171.5ZM109.5 171C109.203 171 108.913 171.088 108.667 171.253C108.42 171.418 108.228 171.652 108.114 171.926C108.001 172.2 107.971 172.502 108.029 172.793C108.087 173.084 108.23 173.351 108.439 173.561C108.649 173.77 108.916 173.913 109.207 173.971C109.498 174.029 109.8 173.999 110.074 173.886C110.348 173.772 110.582 173.58 110.747 173.333C110.912 173.087 111 172.797 111 172.5C111 172.102 110.842 171.721 110.561 171.439C110.279 171.158 109.898 171 109.5 171Z" fill="#66CC33"/>
<path d="M97.5 168.5L279.5 25.5" stroke="#66CC33" stroke-miterlimit="10"/>
<path d="M98.5 230.5L279.5 240.5" stroke="#66CC33" stroke-miterlimit="10"/>
<path d="M183.5 228.5L590.5 237.5" stroke="#66CC33" stroke-miterlimit="10" stroke-linecap="round"/>
<path d="M182.5 169.5L588.5 25.5" stroke="#66CC33" stroke-miterlimit="10"/>
<path d="M578.75 22H289.36C280.877 22 274 28.8769 274 37.36V227.64C274 236.123 280.877 243 289.36 243H578.75C587.233 243 594.11 236.123 594.11 227.64V37.36C594.11 28.8769 587.233 22 578.75 22Z" fill="white"/>
<path d="M578.75 23C582.558 23.0027 586.209 24.5164 588.901 27.2089C591.594 29.9013 593.107 33.5523 593.11 37.36V227.64C593.107 231.448 591.594 235.099 588.901 237.791C586.209 240.484 582.558 241.997 578.75 242H289.36C285.552 241.997 281.901 240.484 279.209 237.791C276.516 235.099 275.003 231.448 275 227.64V37.36C275.003 33.5523 276.516 29.9013 279.209 27.2089C281.901 24.5164 285.552 23.0027 289.36 23H578.75ZM578.75 21H289.36C287.211 20.9987 285.083 21.421 283.098 22.2427C281.112 23.0644 279.308 24.2694 277.789 25.7888C276.269 27.3082 275.064 29.1123 274.243 31.0977C273.421 33.0832 272.999 35.2112 273 37.36V227.64C272.999 229.789 273.421 231.917 274.243 233.902C275.064 235.888 276.269 237.692 277.789 239.211C279.308 240.731 281.112 241.936 283.098 242.757C285.083 243.579 287.211 244.001 289.36 244H578.75C580.899 244.001 583.027 243.579 585.012 242.757C586.998 241.936 588.802 240.731 590.321 239.211C591.841 237.692 593.046 235.888 593.867 233.902C594.689 231.917 595.111 229.789 595.11 227.64V37.36C595.111 35.2112 594.689 33.0832 593.867 31.0977C593.046 29.1123 591.841 27.3082 590.321 25.7888C588.802 24.2694 586.998 23.0644 585.012 22.2427C583.027 21.421 580.899 20.9987 578.75 21V21Z" fill="#66CC33"/>
<path d="M273 51.09H595.11" stroke="#66CC33" stroke-width="2" stroke-miterlimit="10"/>
<path d="M303.09 41.74C305.746 41.74 307.9 39.5865 307.9 36.93C307.9 34.2735 305.746 32.12 303.09 32.12C300.434 32.12 298.28 34.2735 298.28 36.93C298.28 39.5865 300.434 41.74 303.09 41.74Z" fill="#66CC33"/>
<path d="M303.09 32.62C303.942 32.62 304.776 32.8728 305.485 33.3464C306.193 33.82 306.746 34.4931 307.072 35.2806C307.398 36.0682 307.484 36.9348 307.317 37.7708C307.151 38.6069 306.74 39.3749 306.138 39.9776C305.535 40.5804 304.767 40.9909 303.931 41.1572C303.095 41.3235 302.228 41.2381 301.441 40.9119C300.653 40.5857 299.98 40.0333 299.506 39.3245C299.033 38.6157 298.78 37.7824 298.78 36.93C298.783 35.7877 299.238 34.693 300.045 33.8853C300.853 33.0776 301.948 32.6226 303.09 32.62V32.62ZM303.09 31.62C302.04 31.62 301.013 31.9314 300.14 32.5149C299.267 33.0984 298.586 33.9277 298.184 34.8979C297.782 35.8682 297.677 36.9359 297.882 37.9659C298.087 38.996 298.593 39.9421 299.335 40.6847C300.078 41.4273 301.024 41.9331 302.054 42.138C303.084 42.3429 304.152 42.2377 305.122 41.8358C306.092 41.4339 306.922 40.7533 307.505 39.8801C308.089 39.0068 308.4 37.9802 308.4 36.93C308.4 35.5217 307.841 34.1711 306.845 33.1753C305.849 32.1794 304.498 31.62 303.09 31.62V31.62Z" fill="#66CC33"/>
<path d="M317.25 41.74C319.906 41.74 322.06 39.5865 322.06 36.93C322.06 34.2735 319.906 32.12 317.25 32.12C314.594 32.12 312.44 34.2735 312.44 36.93C312.44 39.5865 314.594 41.74 317.25 41.74Z" fill="#66CC33"/>
<path d="M317.25 32.62C318.102 32.62 318.936 32.8728 319.645 33.3464C320.353 33.82 320.906 34.4931 321.232 35.2806C321.558 36.0682 321.643 36.9348 321.477 37.7708C321.311 38.6069 320.9 39.3749 320.298 39.9776C319.695 40.5804 318.927 40.9909 318.091 41.1572C317.255 41.3235 316.388 41.2381 315.601 40.9119C314.813 40.5857 314.14 40.0333 313.666 39.3245C313.193 38.6157 312.94 37.7824 312.94 36.93C312.943 35.7877 313.398 34.693 314.205 33.8853C315.013 33.0776 316.108 32.6226 317.25 32.62V32.62ZM317.25 31.62C316.2 31.62 315.173 31.9314 314.3 32.5149C313.427 33.0984 312.746 33.9277 312.344 34.8979C311.942 35.8682 311.837 36.9359 312.042 37.9659C312.247 38.996 312.753 39.9421 313.495 40.6847C314.238 41.4273 315.184 41.9331 316.214 42.138C317.244 42.3429 318.312 42.2377 319.282 41.8358C320.252 41.4339 321.082 40.7533 321.665 39.8801C322.249 39.0068 322.56 37.9802 322.56 36.93C322.56 35.5217 322.001 34.1711 321.005 33.1753C320.009 32.1794 318.658 31.62 317.25 31.62V31.62Z" fill="#66CC33"/>
<path d="M331.4 41.74C330.449 41.74 329.519 41.4579 328.728 40.9294C327.937 40.4008 327.32 39.6496 326.956 38.7707C326.592 37.8918 326.497 36.9247 326.682 35.9916C326.868 35.0586 327.326 34.2015 327.999 33.5288C328.671 32.8561 329.529 32.398 330.462 32.2124C331.395 32.0268 332.362 32.1221 333.241 32.4861C334.12 32.8502 334.871 33.4667 335.399 34.2577C335.928 35.0487 336.21 35.9787 336.21 36.93C336.21 37.5617 336.086 38.1871 335.844 38.7707C335.602 39.3543 335.248 39.8845 334.801 40.3312C334.355 40.7778 333.824 41.1321 333.241 41.3739C332.657 41.6156 332.032 41.74 331.4 41.74V41.74Z" fill="#66CC33"/>
<path d="M331.4 32.62C332.253 32.618 333.087 32.8691 333.797 33.3415C334.507 33.8139 335.061 34.4863 335.389 35.2737C335.717 36.0611 335.804 36.928 335.638 37.7647C335.473 38.6014 335.064 39.3703 334.461 39.9741C333.859 40.5778 333.091 40.9893 332.255 41.1564C331.418 41.3236 330.551 41.2388 329.763 40.9129C328.975 40.587 328.301 40.0345 327.827 39.3255C327.353 38.6166 327.1 37.7829 327.1 36.93C327.1 35.7887 327.553 34.6939 328.359 33.8859C329.165 33.0779 330.259 32.6227 331.4 32.62V32.62ZM331.4 31.62C330.35 31.62 329.323 31.9314 328.45 32.5149C327.577 33.0984 326.896 33.9277 326.494 34.898C326.092 35.8682 325.987 36.9359 326.192 37.9659C326.397 38.996 326.903 39.9421 327.645 40.6847C328.388 41.4274 329.334 41.9331 330.364 42.138C331.394 42.3429 332.462 42.2377 333.432 41.8358C334.402 41.4339 335.232 40.7533 335.815 39.8801C336.399 39.0069 336.71 37.9802 336.71 36.93C336.711 36.2323 336.575 35.5412 336.308 34.8964C336.042 34.2516 335.651 33.6657 335.158 33.1723C334.664 32.679 334.078 32.2879 333.434 32.0215C332.789 31.7551 332.098 31.6187 331.4 31.62V31.62Z" fill="#66CC33"/>
<path d="M460.68 87.5H418.88C416.616 87.5 414.78 89.3356 414.78 91.6V119.4C414.78 121.664 416.616 123.5 418.88 123.5H460.68C462.944 123.5 464.78 121.664 464.78 119.4V91.6C464.78 89.3356 462.944 87.5 460.68 87.5Z" stroke="#66CC33" stroke-miterlimit="10"/>
<path d="M460.4 152.5H418.6C416.336 152.5 414.5 154.336 414.5 156.6V184.4C414.5 186.664 416.336 188.5 418.6 188.5H460.4C462.664 188.5 464.5 186.664 464.5 184.4V156.6C464.5 154.336 462.664 152.5 460.4 152.5Z" stroke="#66CC33" stroke-miterlimit="10"/>
<path d="M541.4 152.5H499.6C497.336 152.5 495.5 154.336 495.5 156.6V184.4C495.5 186.664 497.336 188.5 499.6 188.5H541.4C543.664 188.5 545.5 186.664 545.5 184.4V156.6C545.5 154.336 543.664 152.5 541.4 152.5Z" stroke="#66CC33" stroke-miterlimit="10"/>
<path d="M379.4 152.5H337.6C335.336 152.5 333.5 154.336 333.5 156.6V184.4C333.5 186.664 335.336 188.5 337.6 188.5H379.4C381.664 188.5 383.5 186.664 383.5 184.4V156.6C383.5 154.336 381.664 152.5 379.4 152.5Z" stroke="#66CC33" stroke-miterlimit="10"/>
<path d="M358.5 152.5L426.5 123.5" stroke="#66CC33" stroke-miterlimit="10"/>
<path d="M520.5 152.5L451.5 123.5" stroke="#66CC33" stroke-miterlimit="10"/>
<path d="M439.5 152.5V123.5" stroke="#66CC33" stroke-miterlimit="10"/>
</svg>
