<svg id="ba21cabb-1c79-484a-bc5b-213f52afd355" data-name="Layer 1" xmlns="http://www.w3.org/2000/svg" viewBox="0 0 341 288"><title>lb_minimal</title><path d="M111.06,243.81H0V222.19H85.3v-178h25.76Z" transform="translate(0 0)" style="fill:#6c3"/><path d="M215.13,46.71c11.25-2.37,29-4.15,47.09-4.15C288,42.56,304.57,47,317,57.07c10.37,7.7,16.59,19.55,16.59,35.25,0,19.25-12.74,36.13-33.77,43.83v.59c19,4.74,41.17,20.44,41.17,50.06a53.81,53.81,0,0,1-16.88,40c-13.92,12.74-36.43,18.66-69,18.66a302,302,0,0,1-40-2.37Zm25.76,81.74h23.4c27.25,0,43.24-14.22,43.24-33.47,0-23.39-17.77-32.58-43.83-32.58-11.85,0-18.66.89-22.81,1.78Zm0,95.66c5,.89,12.44,1.19,21.62,1.19,26.66,0,51.24-9.77,51.24-38.8,0-27.25-23.4-38.5-51.53-38.5H240.89Z" transform="translate(0 0)" style="fill:#6c3"/><rect x="150.15" width="25.89" height="288" style="fill:#6c3"/></svg>